<svg width="153" height="25" viewBox="0 0 153 25" fill="none" xmlns="http://www.w3.org/2000/svg">
<path d="M45.3484 17.3035C45.3484 17.4193 45.3282 17.5151 45.2929 17.5957C45.2526 17.6763 45.2073 17.7418 45.1418 17.7922C45.0814 17.8425 45.0108 17.8778 44.9353 17.903C44.8597 17.9231 44.7841 17.9382 44.7035 17.9382H44.2148C44.0637 17.9382 43.9277 17.9231 43.8118 17.8929C43.6959 17.8627 43.5851 17.8022 43.4843 17.7216C43.3836 17.641 43.2778 17.5251 43.172 17.3841C43.0712 17.243 42.9604 17.0566 42.8445 16.8349L39.4641 10.5375C39.2877 10.2151 39.1114 9.87251 38.93 9.51482C38.7487 9.15712 38.5824 8.80951 38.4313 8.477H38.4162C38.4262 8.89011 38.4363 9.30826 38.4414 9.73649C38.4464 10.1647 38.4514 10.5879 38.4514 11.0111V17.6914C38.4514 17.7317 38.4414 17.772 38.4162 17.8073C38.391 17.8425 38.3507 17.8728 38.2953 17.8929C38.2398 17.9131 38.1643 17.9282 38.0685 17.9433C37.9728 17.9584 37.857 17.9634 37.7109 17.9634C37.5648 17.9634 37.4489 17.9584 37.3532 17.9433C37.2574 17.9282 37.1869 17.9131 37.1315 17.8929C37.0761 17.8728 37.0408 17.8425 37.0156 17.8073C36.9904 17.767 36.9804 17.7267 36.9804 17.6864V7.46942C36.9804 7.24271 37.0458 7.07646 37.1768 6.98074C37.3078 6.88502 37.4489 6.83464 37.6 6.83464H38.3255C38.4968 6.83464 38.6378 6.84975 38.7537 6.87494C38.8696 6.90517 38.9703 6.95051 39.061 7.01601C39.1517 7.0815 39.2424 7.17218 39.328 7.28805C39.4137 7.40392 39.5044 7.55003 39.595 7.72636L42.1896 12.588C42.3508 12.8852 42.5019 13.1724 42.6531 13.4545C42.8042 13.7366 42.9453 14.0137 43.0813 14.2908C43.2173 14.5628 43.3533 14.8349 43.4894 15.0969C43.6254 15.3639 43.7564 15.6309 43.8924 15.8979H43.9025C43.8924 15.4495 43.8823 14.9759 43.8823 14.4923C43.8773 14.0036 43.8773 13.5351 43.8773 13.0867V7.08149C43.8773 7.04119 43.8874 7.00593 43.9126 6.97067C43.9377 6.9354 43.978 6.90517 44.0335 6.87998C44.0889 6.85479 44.1645 6.83464 44.2602 6.82456C44.3509 6.81449 44.4768 6.80945 44.6279 6.80945C44.7589 6.80945 44.8748 6.81449 44.9705 6.82456C45.0662 6.83464 45.1418 6.85479 45.1972 6.87998C45.2526 6.90517 45.2929 6.9354 45.3131 6.97067C45.3383 7.00593 45.3484 7.04119 45.3484 7.08149V17.3035V17.3035Z" fill="#4C4948"/>
<path d="M54.4973 13.51C54.4973 13.7316 54.4418 13.8928 54.331 13.9835C54.2202 14.0742 54.0942 14.1246 53.9481 14.1246H48.8749C48.8749 14.5528 48.9203 14.9357 49.0059 15.2783C49.0916 15.6209 49.2377 15.9131 49.4341 16.1599C49.6356 16.4068 49.8976 16.5932 50.215 16.7242C50.5374 16.8552 50.9304 16.9206 51.3939 16.9206C51.7617 16.9206 52.0891 16.8904 52.3763 16.83C52.6634 16.7695 52.9103 16.704 53.1219 16.6284C53.3335 16.5529 53.5048 16.4874 53.6358 16.4269C53.7668 16.3665 53.8726 16.3362 53.9431 16.3362C53.9834 16.3362 54.0187 16.3463 54.0489 16.3665C54.0791 16.3866 54.1043 16.4168 54.1244 16.4571C54.1446 16.4975 54.1547 16.5529 54.1648 16.6234C54.1748 16.6939 54.1799 16.7796 54.1799 16.8854C54.1799 16.9609 54.1748 17.0264 54.1698 17.0768C54.1648 17.1322 54.1547 17.1776 54.1496 17.2229C54.1396 17.2632 54.1245 17.3035 54.1093 17.3388C54.0892 17.3741 54.064 17.4043 54.0338 17.4396C54.0035 17.4698 53.9078 17.5202 53.7567 17.5957C53.6055 17.6713 53.404 17.7368 53.1572 17.8073C52.9103 17.8779 52.6282 17.9383 52.3058 17.9937C51.9833 18.0491 51.6407 18.0743 51.273 18.0743C50.6382 18.0743 50.084 17.9887 49.6105 17.8073C49.1319 17.631 48.7339 17.369 48.4064 17.0214C48.084 16.6738 47.8371 16.2355 47.6709 15.7115C47.5046 15.1876 47.424 14.578 47.424 13.8828C47.424 13.2228 47.5096 12.6283 47.6809 12.0993C47.8522 11.5704 48.0991 11.122 48.4215 10.7542C48.7439 10.3864 49.1319 10.1043 49.5903 9.90783C50.0488 9.71135 50.5576 9.6106 51.1218 9.6106C51.7264 9.6106 52.2403 9.70632 52.6685 9.9028C53.0917 10.0942 53.4443 10.3562 53.7164 10.6837C53.9884 11.0111 54.1899 11.3991 54.3209 11.8374C54.4469 12.2807 54.5124 12.7492 54.5124 13.253V13.51H54.4973ZM53.0766 13.0918C53.0917 12.3512 52.9305 11.7668 52.5828 11.3487C52.2352 10.9255 51.7214 10.7139 51.0362 10.7139C50.6835 10.7139 50.3813 10.7794 50.1143 10.9104C49.8523 11.0414 49.6306 11.2177 49.4492 11.4343C49.2729 11.651 49.1319 11.9029 49.0361 12.19C48.9404 12.4772 48.885 12.7795 48.8699 13.0918H53.0766V13.0918Z" fill="#4C4948"/>
<path d="M67.0921 9.97833C67.0921 10.0186 67.087 10.069 67.077 10.1244C67.0669 10.1799 67.0467 10.2504 67.0165 10.336L64.7494 17.6511C64.7343 17.7116 64.7041 17.767 64.6688 17.8073C64.6336 17.8476 64.5782 17.8778 64.5127 17.903C64.4472 17.9232 64.3565 17.9433 64.2406 17.9483C64.1247 17.9584 63.9837 17.9635 63.8124 17.9635C63.6361 17.9635 63.4849 17.9584 63.3691 17.9483C63.2481 17.9383 63.1524 17.9181 63.0819 17.898C63.0114 17.8778 62.9559 17.8426 62.9257 17.8023C62.8904 17.7619 62.8653 17.7116 62.8501 17.6561L61.233 12.0691L61.2179 11.9935L61.2027 12.0691L59.7065 17.6561C59.6914 17.7166 59.6611 17.772 59.6259 17.8123C59.5906 17.8526 59.5352 17.8829 59.4596 17.908C59.384 17.9282 59.2883 17.9483 59.1725 17.9534C59.0566 17.9635 58.9105 17.9685 58.7392 17.9685C58.5629 17.9685 58.4168 17.9635 58.3059 17.9534C58.1951 17.9433 58.1044 17.9232 58.0339 17.903C57.9633 17.8829 57.9079 17.8476 57.8777 17.8073C57.8424 17.767 57.8173 17.7166 57.8021 17.6612L55.5502 10.3461C55.52 10.2605 55.4998 10.1899 55.4897 10.1345C55.4796 10.0791 55.4746 10.0287 55.4746 9.98841C55.4746 9.93803 55.4847 9.89773 55.5099 9.86246C55.5351 9.83223 55.5703 9.80705 55.6257 9.78689C55.6812 9.76674 55.7517 9.75667 55.8424 9.74659C55.9331 9.74155 56.0439 9.73651 56.1749 9.73651C56.3361 9.73651 56.462 9.74155 56.5578 9.75162C56.6535 9.7617 56.7291 9.77178 56.7794 9.79193C56.8298 9.81208 56.8651 9.84231 56.8903 9.87757C56.9104 9.91284 56.9306 9.95818 56.9507 10.0086L58.8097 16.3564L58.8248 16.4319L58.8399 16.3564L60.5428 10.0086C60.5528 9.95818 60.573 9.91284 60.5982 9.87757C60.6234 9.84231 60.6637 9.81208 60.7141 9.79193C60.7644 9.77178 60.835 9.75666 60.9257 9.75162C61.0113 9.74155 61.1272 9.73651 61.2733 9.73651C61.4093 9.73651 61.5252 9.74155 61.6108 9.75162C61.7015 9.7617 61.767 9.77178 61.8224 9.79193C61.8728 9.81208 61.9131 9.83727 61.9332 9.87254C61.9584 9.9078 61.9735 9.94811 61.9836 9.99345L63.8225 16.3614L63.8376 16.437L63.8477 16.3614L65.6764 10.0136C65.6865 9.96322 65.7067 9.91788 65.7318 9.88262C65.757 9.84735 65.7973 9.81712 65.8528 9.79697C65.9082 9.77682 65.9787 9.76171 66.0744 9.75667C66.1701 9.74659 66.2911 9.74155 66.4372 9.74155C66.5732 9.74155 66.684 9.74659 66.7646 9.75162C66.8452 9.75666 66.9107 9.77178 66.9611 9.79193C67.0115 9.81712 67.0417 9.84231 67.0619 9.8675C67.082 9.88765 67.0921 9.92795 67.0921 9.97833Z" fill="#4C4948"/>
<path d="M80.362 16.3412C80.362 16.4319 80.357 16.5125 80.3519 16.5831C80.3469 16.6536 80.3368 16.709 80.3217 16.7644C80.3066 16.8148 80.2915 16.8602 80.2663 16.9005C80.2461 16.9408 80.2058 16.9911 80.1454 17.0466C80.09 17.102 79.969 17.1927 79.7877 17.3085C79.6063 17.4244 79.3796 17.5403 79.1076 17.6511C78.8355 17.7619 78.5232 17.8577 78.1755 17.9332C77.8229 18.0088 77.44 18.0491 77.0269 18.0491C76.3065 18.0491 75.6616 17.9282 75.0822 17.6914C74.5029 17.4546 74.0092 17.0969 73.6011 16.6284C73.193 16.1599 72.8807 15.5856 72.659 14.8954C72.4373 14.2102 72.3315 13.4192 72.3315 12.5225C72.3315 11.6056 72.4474 10.7844 72.6892 10.069C72.926 9.34859 73.2585 8.74404 73.6867 8.24025C74.115 7.74149 74.6288 7.35861 75.2233 7.09664C75.8178 6.83467 76.4778 6.70367 77.2032 6.70367C77.5206 6.70367 77.833 6.73391 78.1352 6.79436C78.4375 6.85482 78.7196 6.93038 78.9766 7.02107C79.2335 7.11175 79.4602 7.21755 79.6617 7.33846C79.8633 7.45937 79.9993 7.55509 80.0748 7.6357C80.1504 7.71126 80.2008 7.77172 80.226 7.81203C80.2512 7.85233 80.2663 7.89767 80.2814 7.95309C80.2965 8.00851 80.3066 8.06896 80.3167 8.14452C80.3267 8.22009 80.3318 8.30575 80.3318 8.41154C80.3318 8.52741 80.3267 8.62313 80.3167 8.70374C80.3066 8.78434 80.2864 8.84984 80.2663 8.90526C80.2411 8.96067 80.2159 9.00097 80.1857 9.02616C80.1555 9.05135 80.1151 9.06647 80.0698 9.06647C79.9892 9.06647 79.8784 9.01105 79.7323 8.90021C79.5862 8.78938 79.4048 8.66847 79.1781 8.53245C78.9514 8.39642 78.6743 8.27551 78.3519 8.16468C78.0294 8.05385 77.6415 7.99843 77.1881 7.99843C76.6944 7.99843 76.246 8.09918 75.843 8.29566C75.4399 8.49214 75.0923 8.77931 74.8052 9.16219C74.518 9.54507 74.2963 10.0086 74.1402 10.5627C73.984 11.1169 73.9034 11.7416 73.9034 12.4469C73.9034 13.1472 73.9789 13.7669 74.1301 14.3059C74.2812 14.845 74.4978 15.2934 74.785 15.6561C75.0722 16.0188 75.4148 16.2909 75.8329 16.4773C76.246 16.6637 76.7145 16.7544 77.2334 16.7544C77.6768 16.7544 78.0597 16.6989 78.3922 16.5931C78.7196 16.4873 79.0018 16.3614 79.2335 16.2304C79.4653 16.0944 79.6567 15.9735 79.8078 15.8677C79.959 15.7619 80.0748 15.7065 80.1605 15.7065C80.2008 15.7065 80.2361 15.7165 80.2663 15.7317C80.2965 15.7468 80.3167 15.782 80.3368 15.8324C80.3519 15.8828 80.367 15.9483 80.3771 16.0339C80.357 16.1045 80.362 16.2103 80.362 16.3412Z" fill="#4C4948"/>
<path d="M83.3445 17.6965C83.3445 17.7418 83.3344 17.7821 83.3092 17.8124C83.284 17.8426 83.2488 17.8728 83.1984 17.893C83.148 17.9131 83.0775 17.9333 82.9868 17.9434C82.8961 17.9534 82.7802 17.9585 82.6341 17.9585C82.4981 17.9585 82.3822 17.9534 82.2916 17.9434C82.2009 17.9333 82.1253 17.9131 82.0749 17.893C82.0246 17.8728 81.9842 17.8426 81.9641 17.8124C81.9439 17.7821 81.9339 17.7418 81.9339 17.6965V6.26542C81.9339 6.22008 81.9439 6.17978 81.9641 6.14452C81.9842 6.10925 82.0195 6.08406 82.0749 6.05887C82.1303 6.03368 82.2009 6.01857 82.2916 6.00849C82.3822 5.99842 82.4981 5.99338 82.6341 5.99338C82.7752 5.99338 82.8911 5.99842 82.9868 6.00849C83.0775 6.01857 83.148 6.03871 83.1984 6.05887C83.2488 6.07902 83.284 6.10925 83.3092 6.14452C83.3294 6.17978 83.3445 6.22008 83.3445 6.26542V17.6965Z" fill="#4C4948"/>
<path d="M92.9166 13.7619C92.9166 14.3916 92.8309 14.9659 92.6697 15.4949C92.5085 16.0239 92.2566 16.4773 91.9291 16.8602C91.6017 17.2431 91.1885 17.5403 90.6948 17.7519C90.2011 17.9635 89.6268 18.0743 88.9769 18.0743C88.3421 18.0743 87.793 17.9786 87.3194 17.7922C86.8509 17.6058 86.4579 17.3287 86.1456 16.971C85.8332 16.6133 85.5964 16.175 85.4453 15.6612C85.2891 15.1473 85.2136 14.5679 85.2136 13.918C85.2136 13.2883 85.2942 12.714 85.4554 12.185C85.6166 11.656 85.8634 11.2026 86.1909 10.8197C86.5184 10.4368 86.9265 10.1396 87.4202 9.92799C87.9139 9.71639 88.4832 9.6106 89.1381 9.6106C89.7729 9.6106 90.322 9.70632 90.7956 9.89272C91.2641 10.0791 91.6571 10.3562 91.9745 10.7139C92.2868 11.0716 92.5236 11.5099 92.6798 12.0238C92.8359 12.5376 92.9166 13.117 92.9166 13.7619ZM91.4505 13.8525C91.4505 13.4344 91.4102 13.0414 91.3346 12.6737C91.2591 12.3009 91.1281 11.9784 90.9518 11.6963C90.7754 11.4192 90.5336 11.1975 90.2263 11.0313C89.919 10.8701 89.5411 10.7895 89.0877 10.7895C88.6696 10.7895 88.3068 10.865 88.0046 11.0111C87.7023 11.1572 87.4554 11.3688 87.259 11.6409C87.0625 11.9129 86.9164 12.2303 86.8207 12.6031C86.7249 12.9759 86.6796 13.379 86.6796 13.8173C86.6796 14.2405 86.7199 14.6334 86.7955 15.0062C86.871 15.379 87.002 15.7015 87.1834 15.9785C87.3648 16.2556 87.6066 16.4773 87.9139 16.6385C88.2212 16.7997 88.599 16.8803 89.0525 16.8803C89.4656 16.8803 89.8283 16.8048 90.1306 16.6587C90.4379 16.5126 90.6848 16.301 90.8812 16.034C91.0777 15.767 91.2188 15.4445 91.3145 15.0768C91.4052 14.709 91.4505 14.3009 91.4505 13.8525Z" fill="#4C4948"/>
<path d="M98.7555 17.1323C98.7555 17.2985 98.7454 17.4295 98.7203 17.5253C98.6951 17.621 98.6648 17.6915 98.6195 17.7368C98.5741 17.7822 98.5036 17.8275 98.4129 17.8628C98.3223 17.9031 98.2165 17.9333 98.1006 17.9636C97.9847 17.9887 97.8588 18.0089 97.7278 18.029C97.5968 18.0442 97.4658 18.0542 97.3348 18.0542C96.9368 18.0542 96.5942 17.9988 96.3071 17.8981C96.0199 17.7973 95.7882 17.631 95.6068 17.4195C95.4254 17.2079 95.2894 16.9358 95.2088 16.6083C95.1282 16.2809 95.0829 15.893 95.0829 15.4496V10.9507H94.0047C93.9191 10.9507 93.8486 10.9054 93.7982 10.8147C93.7478 10.724 93.7226 10.5729 93.7226 10.3714C93.7226 10.2656 93.7277 10.1699 93.7428 10.0993C93.7579 10.0238 93.778 9.96331 93.7982 9.91293C93.8234 9.86255 93.8536 9.83233 93.8889 9.81217C93.9241 9.79202 93.9695 9.78194 94.0148 9.78194H95.0829V7.95317C95.0829 7.91287 95.0929 7.87761 95.1131 7.84234C95.1332 7.80707 95.1685 7.77684 95.2239 7.75165C95.2793 7.72646 95.3499 7.70631 95.4406 7.69624C95.5312 7.68616 95.6471 7.68112 95.7831 7.68112C95.9242 7.68112 96.0451 7.68616 96.1358 7.69624C96.2265 7.70631 96.297 7.72646 96.3474 7.75165C96.3978 7.77684 96.4381 7.80707 96.4582 7.84234C96.4784 7.87761 96.4935 7.91287 96.4935 7.95317V9.78194H98.4684C98.5137 9.78194 98.554 9.79202 98.5893 9.81217C98.6245 9.83233 98.6548 9.86759 98.6799 9.91293C98.7051 9.96331 98.7253 10.0238 98.7354 10.0993C98.7454 10.1749 98.7505 10.2656 98.7505 10.3714C98.7505 10.5779 98.7253 10.724 98.6749 10.8147C98.6245 10.9054 98.554 10.9507 98.4684 10.9507H96.4935V15.2481C96.4935 15.7771 96.5741 16.1801 96.7303 16.4522C96.8864 16.7242 97.1686 16.8602 97.5716 16.8602C97.7026 16.8602 97.8185 16.8451 97.9243 16.8199C98.0301 16.7947 98.1157 16.7696 98.1963 16.7393C98.2769 16.7091 98.3424 16.6839 98.4029 16.6587C98.4633 16.6335 98.5087 16.6184 98.559 16.6184C98.5893 16.6184 98.6145 16.6235 98.6396 16.6386C98.6648 16.6537 98.685 16.6789 98.7001 16.7192C98.7152 16.7595 98.7253 16.8149 98.7404 16.8804C98.7505 16.9409 98.7555 17.0265 98.7555 17.1323Z" fill="#4C4948"/>
<path d="M106.957 17.6965C106.957 17.7418 106.947 17.7822 106.922 17.8124C106.897 17.8426 106.862 17.8728 106.811 17.893C106.761 17.9131 106.69 17.9333 106.6 17.9434C106.509 17.9534 106.393 17.9585 106.257 17.9585C106.116 17.9585 106 17.9534 105.904 17.9434C105.814 17.9333 105.743 17.9131 105.693 17.893C105.642 17.8728 105.607 17.8426 105.582 17.8124C105.562 17.7822 105.547 17.7418 105.547 17.6965V13.1876C105.547 12.7493 105.511 12.3966 105.446 12.1246C105.38 11.8525 105.28 11.6258 105.149 11.4293C105.018 11.2328 104.846 11.0867 104.64 10.986C104.433 10.8852 104.191 10.8298 103.914 10.8298C103.562 10.8298 103.209 10.9557 102.851 11.2076C102.499 11.4595 102.126 11.8273 101.738 12.311V17.6915C101.738 17.7368 101.728 17.7771 101.703 17.8073C101.678 17.8376 101.642 17.8678 101.592 17.888C101.541 17.9081 101.471 17.9283 101.38 17.9383C101.29 17.9484 101.174 17.9534 101.028 17.9534C100.892 17.9534 100.776 17.9484 100.685 17.9383C100.594 17.9283 100.519 17.9081 100.468 17.888C100.418 17.8678 100.378 17.8376 100.358 17.8073C100.337 17.7771 100.327 17.7368 100.327 17.6915V6.2604C100.327 6.21505 100.337 6.17475 100.358 6.13948C100.378 6.10422 100.413 6.07903 100.468 6.05384C100.524 6.02865 100.594 6.01353 100.685 6.00346C100.776 5.99338 100.892 5.98834 101.028 5.98834C101.169 5.98834 101.285 5.99338 101.38 6.00346C101.471 6.01353 101.541 6.03369 101.592 6.05384C101.642 6.07399 101.678 6.10422 101.703 6.13948C101.723 6.17475 101.738 6.21505 101.738 6.2604V10.8701C102.141 10.4419 102.549 10.1245 102.962 9.91793C103.375 9.71138 103.788 9.60558 104.202 9.60558C104.715 9.60558 105.149 9.69123 105.496 9.86756C105.849 10.0388 106.131 10.2756 106.348 10.5628C106.564 10.855 106.72 11.1925 106.811 11.5855C106.907 11.9784 106.952 12.447 106.952 13.0011V17.6965H106.957Z" fill="#4C4948"/>
<path d="M115.879 13.51C115.879 13.7316 115.824 13.8928 115.713 13.9835C115.602 14.0742 115.476 14.1246 115.33 14.1246H110.257C110.257 14.5528 110.302 14.9357 110.388 15.2783C110.474 15.6209 110.62 15.9131 110.816 16.1599C111.018 16.4068 111.28 16.5932 111.597 16.7242C111.92 16.8552 112.313 16.9206 112.776 16.9206C113.144 16.9206 113.471 16.8904 113.758 16.83C114.046 16.7695 114.293 16.704 114.504 16.6284C114.716 16.5529 114.887 16.4874 115.018 16.4269C115.149 16.3665 115.255 16.3362 115.325 16.3362C115.366 16.3362 115.401 16.3463 115.431 16.3665C115.461 16.3866 115.487 16.4168 115.507 16.4571C115.527 16.4975 115.537 16.5529 115.547 16.6234C115.557 16.6939 115.562 16.7796 115.562 16.8854C115.562 16.9609 115.557 17.0264 115.552 17.0768C115.547 17.1322 115.537 17.1776 115.532 17.2229C115.522 17.2632 115.507 17.3035 115.492 17.3388C115.471 17.3741 115.446 17.4043 115.416 17.4396C115.386 17.4698 115.29 17.5202 115.139 17.5957C114.988 17.6713 114.786 17.7368 114.539 17.8073C114.293 17.8779 114.01 17.9383 113.688 17.9937C113.366 18.0491 113.023 18.0743 112.655 18.0743C112.02 18.0743 111.466 17.9887 110.993 17.8073C110.514 17.631 110.116 17.369 109.789 17.0214C109.466 16.6738 109.219 16.2355 109.053 15.7115C108.887 15.1876 108.806 14.578 108.806 13.8828C108.806 13.2228 108.892 12.6283 109.063 12.0993C109.234 11.5704 109.481 11.122 109.804 10.7542C110.126 10.3864 110.514 10.1043 110.973 9.90783C111.431 9.71135 111.94 9.6106 112.504 9.6106C113.109 9.6106 113.622 9.70632 114.051 9.9028C114.474 10.0942 114.827 10.3562 115.099 10.6837C115.371 11.0111 115.572 11.3991 115.703 11.8374C115.829 12.2807 115.895 12.7492 115.895 13.253V13.51H115.879ZM114.459 13.0918C114.474 12.3512 114.313 11.7668 113.965 11.3487C113.617 10.9255 113.104 10.7139 112.418 10.7139C112.066 10.7139 111.763 10.7794 111.496 10.9104C111.234 11.0414 111.013 11.2177 110.831 11.4343C110.655 11.651 110.514 11.9029 110.418 12.19C110.323 12.4772 110.267 12.7795 110.252 13.0918H114.459V13.0918Z" fill="#4C4948"/>
<path d="M122.605 15.6007C122.605 15.9937 122.535 16.3463 122.388 16.6536C122.242 16.9609 122.036 17.2229 121.769 17.4345C121.502 17.6461 121.179 17.8073 120.812 17.9131C120.439 18.0189 120.031 18.0743 119.587 18.0743C119.315 18.0743 119.053 18.0542 118.806 18.0088C118.56 17.9685 118.338 17.9131 118.136 17.8476C117.94 17.7821 117.774 17.7116 117.638 17.6411C117.502 17.5705 117.401 17.505 117.34 17.4496C117.28 17.3942 117.235 17.3136 117.204 17.2078C117.174 17.102 117.164 16.966 117.164 16.7896C117.164 16.6839 117.169 16.5881 117.179 16.5176C117.189 16.442 117.204 16.3816 117.22 16.3362C117.235 16.2909 117.26 16.2556 117.29 16.2355C117.32 16.2153 117.356 16.2052 117.396 16.2052C117.456 16.2052 117.552 16.2456 117.673 16.3211C117.794 16.3967 117.945 16.4823 118.126 16.573C118.308 16.6637 118.519 16.7493 118.761 16.8249C119.008 16.9005 119.29 16.9408 119.608 16.9408C119.849 16.9408 120.066 16.9156 120.257 16.8652C120.449 16.8148 120.62 16.7393 120.761 16.6385C120.902 16.5377 121.013 16.4118 121.089 16.2556C121.164 16.0995 121.205 15.9181 121.205 15.7065C121.205 15.4899 121.149 15.3085 121.038 15.1574C120.927 15.0113 120.781 14.8803 120.6 14.7644C120.419 14.6485 120.212 14.5478 119.985 14.4621C119.759 14.3765 119.522 14.2808 119.28 14.185C119.038 14.0893 118.801 13.9785 118.57 13.8576C118.338 13.7367 118.131 13.5855 117.95 13.4092C117.769 13.2329 117.623 13.0213 117.507 12.7744C117.396 12.5276 117.34 12.2354 117.34 11.8928C117.34 11.5905 117.401 11.3033 117.517 11.0262C117.633 10.7492 117.809 10.5073 118.041 10.3008C118.272 10.0942 118.565 9.92798 118.917 9.80203C119.27 9.67608 119.678 9.61563 120.147 9.61563C120.353 9.61563 120.56 9.63074 120.761 9.66601C120.968 9.70127 121.154 9.74157 121.315 9.79195C121.482 9.84233 121.623 9.89775 121.739 9.95821C121.854 10.0187 121.945 10.069 122.006 10.1144C122.066 10.1597 122.106 10.2 122.126 10.2353C122.147 10.2706 122.162 10.3058 122.167 10.3512C122.177 10.3915 122.182 10.4469 122.192 10.5073C122.202 10.5678 122.207 10.6484 122.207 10.7391C122.207 10.8348 122.202 10.9205 122.192 10.991C122.182 11.0615 122.172 11.122 122.152 11.1673C122.132 11.2127 122.106 11.2479 122.081 11.2681C122.051 11.2882 122.021 11.2983 121.985 11.2983C121.935 11.2983 121.859 11.2681 121.764 11.2026C121.668 11.1421 121.542 11.0716 121.386 11.0011C121.23 10.9305 121.048 10.865 120.842 10.7995C120.635 10.7391 120.393 10.7038 120.126 10.7038C119.885 10.7038 119.678 10.729 119.492 10.7844C119.31 10.8398 119.159 10.9154 119.043 11.0162C118.927 11.1169 118.837 11.2328 118.776 11.3739C118.716 11.5149 118.686 11.661 118.686 11.8172C118.686 12.0389 118.741 12.2253 118.857 12.3764C118.973 12.5276 119.119 12.6585 119.3 12.7744C119.482 12.8903 119.693 12.991 119.925 13.0817C120.157 13.1724 120.398 13.2681 120.64 13.3638C120.882 13.4596 121.124 13.5704 121.361 13.6913C121.598 13.8122 121.809 13.9583 121.99 14.1296C122.172 14.3009 122.318 14.5075 122.434 14.7442C122.55 14.981 122.605 15.2682 122.605 15.6007Z" fill="#4C4948"/>
<path d="M136.046 14.7342C136.046 15.0818 136.001 15.4042 135.915 15.6964C135.825 15.9886 135.704 16.2556 135.543 16.4874C135.381 16.7191 135.19 16.9257 134.963 17.102C134.736 17.2783 134.485 17.4295 134.202 17.5453C133.92 17.6662 133.618 17.7569 133.296 17.8123C132.973 17.8728 132.605 17.903 132.187 17.903H129.295C129.165 17.903 129.039 17.8577 128.923 17.772C128.807 17.6864 128.746 17.5302 128.746 17.3086V7.4342C128.746 7.21253 128.807 7.05635 128.923 6.96567C129.039 6.87499 129.165 6.83469 129.295 6.83469H131.809C132.469 6.83469 133.013 6.89514 133.437 7.02109C133.86 7.14704 134.213 7.3284 134.495 7.57022C134.777 7.81204 134.988 8.10424 135.129 8.45186C135.27 8.79948 135.341 9.19244 135.341 9.63074C135.341 9.89271 135.311 10.1446 135.245 10.3864C135.185 10.6283 135.089 10.8449 134.968 11.0514C134.847 11.253 134.691 11.4343 134.505 11.5955C134.318 11.7567 134.107 11.8877 133.865 11.9885C134.167 12.0439 134.449 12.1497 134.711 12.3008C134.973 12.452 135.205 12.6434 135.401 12.8802C135.598 13.112 135.754 13.389 135.865 13.7014C135.991 14.0137 136.046 14.3563 136.046 14.7342ZM133.835 9.78187C133.835 9.51486 133.799 9.27305 133.724 9.05642C133.648 8.83979 133.532 8.65338 133.376 8.50224C133.22 8.3511 133.008 8.23523 132.752 8.15462C132.495 8.07402 132.157 8.03372 131.734 8.03372H130.212V11.6207H131.885C132.268 11.6207 132.575 11.5703 132.807 11.4696C133.039 11.3688 133.235 11.2378 133.386 11.0665C133.537 10.9003 133.653 10.7038 133.724 10.4771C133.799 10.2554 133.835 10.0187 133.835 9.78187ZM134.5 14.8198C134.5 14.4873 134.449 14.2001 134.344 13.9482C134.238 13.6964 134.087 13.4848 133.88 13.3135C133.673 13.1422 133.427 13.0112 133.119 12.9255C132.817 12.8399 132.434 12.7946 131.971 12.7946H130.212V16.6939H132.348C132.686 16.6939 132.978 16.6536 133.23 16.573C133.482 16.4924 133.704 16.3765 133.89 16.2153C134.082 16.0591 134.233 15.8627 134.338 15.6309C134.444 15.3992 134.5 15.1271 134.5 14.8198Z" fill="#4C4948"/>
<path d="M143.815 17.7066C143.815 17.7771 143.795 17.8275 143.744 17.8627C143.699 17.898 143.638 17.9232 143.558 17.9383C143.477 17.9534 143.361 17.9635 143.205 17.9635C143.059 17.9635 142.938 17.9534 142.848 17.9383C142.757 17.9232 142.696 17.898 142.656 17.8627C142.616 17.8275 142.596 17.7771 142.596 17.7066V16.9358C142.258 17.2934 141.885 17.5756 141.472 17.7771C141.059 17.9786 140.621 18.0743 140.157 18.0743C139.754 18.0743 139.386 18.0239 139.059 17.9181C138.732 17.8124 138.449 17.6612 138.223 17.4597C137.991 17.2582 137.81 17.0164 137.684 16.7242C137.558 16.432 137.492 16.1045 137.492 15.7317C137.492 15.2984 137.583 14.9206 137.759 14.6032C137.936 14.2858 138.187 14.0188 138.52 13.8072C138.852 13.5956 139.255 13.4394 139.734 13.3336C140.213 13.2278 140.752 13.1774 141.351 13.1774H142.414V12.5779C142.414 12.2807 142.384 12.0187 142.319 11.792C142.258 11.5653 142.152 11.3739 142.016 11.2227C141.88 11.0716 141.694 10.9557 141.472 10.8802C141.251 10.8046 140.973 10.7643 140.651 10.7643C140.303 10.7643 139.991 10.8046 139.714 10.8902C139.437 10.9759 139.195 11.0666 138.988 11.1623C138.782 11.263 138.606 11.3537 138.465 11.4343C138.323 11.5149 138.223 11.5603 138.152 11.5603C138.107 11.5603 138.067 11.5502 138.031 11.525C137.996 11.4998 137.966 11.4696 137.941 11.4242C137.915 11.3789 137.895 11.3184 137.885 11.2479C137.875 11.1774 137.87 11.0968 137.87 11.0111C137.87 10.8701 137.88 10.7542 137.9 10.6736C137.92 10.593 137.971 10.5124 138.046 10.4368C138.122 10.3612 138.258 10.2756 138.444 10.1748C138.631 10.0741 138.847 9.9834 139.094 9.90279C139.341 9.82218 139.608 9.75165 139.9 9.69623C140.193 9.64081 140.485 9.61563 140.782 9.61563C141.336 9.61563 141.805 9.67608 142.193 9.80203C142.581 9.92798 142.893 10.1093 143.135 10.3562C143.377 10.6031 143.548 10.9003 143.659 11.258C143.764 11.6157 143.82 12.0389 143.82 12.5175V17.7066H143.815ZM142.414 14.185H141.21C140.822 14.185 140.485 14.2203 140.203 14.2858C139.915 14.3513 139.679 14.447 139.492 14.578C139.306 14.7039 139.165 14.8601 139.079 15.0415C138.988 15.2228 138.948 15.4294 138.948 15.6612C138.948 16.0592 139.074 16.3765 139.331 16.6133C139.588 16.8501 139.941 16.971 140.394 16.971C140.767 16.971 141.109 16.8753 141.427 16.6889C141.744 16.5025 142.077 16.2103 142.424 15.8224V14.185H142.414Z" fill="#4C4948"/>
<path d="M152.687 10.3462C152.687 10.5477 152.661 10.6887 152.606 10.7794C152.551 10.8701 152.48 10.9104 152.394 10.9104H151.291C151.493 11.117 151.629 11.3437 151.709 11.5905C151.79 11.8374 151.83 12.0943 151.83 12.3664C151.83 12.8097 151.76 13.2077 151.619 13.5452C151.477 13.8878 151.271 14.175 151.009 14.4118C150.747 14.6486 150.43 14.8299 150.062 14.9559C149.694 15.0818 149.291 15.1423 148.848 15.1423C148.535 15.1423 148.238 15.102 147.951 15.0163C147.669 14.9357 147.452 14.8299 147.296 14.704C147.195 14.8047 147.11 14.9256 147.044 15.0566C146.979 15.1876 146.943 15.3388 146.943 15.51C146.943 15.7116 147.034 15.8728 147.22 16.0088C147.407 16.1398 147.654 16.2103 147.961 16.2204L149.971 16.306C150.354 16.3161 150.707 16.3715 151.024 16.4622C151.341 16.5579 151.619 16.6889 151.855 16.8653C152.087 17.0416 152.273 17.2532 152.404 17.5051C152.535 17.757 152.601 18.0542 152.601 18.3917C152.601 18.7444 152.525 19.0819 152.379 19.3993C152.233 19.7167 152.006 19.9988 151.699 20.2407C151.392 20.4825 151.004 20.6739 150.53 20.815C150.057 20.9561 149.498 21.0266 148.853 21.0266C148.233 21.0266 147.704 20.9762 147.266 20.8704C146.827 20.7646 146.47 20.6185 146.193 20.4371C145.916 20.2558 145.709 20.0341 145.583 19.7822C145.457 19.5303 145.397 19.2532 145.397 18.956C145.397 18.7696 145.417 18.5832 145.467 18.4069C145.518 18.2305 145.583 18.0592 145.679 17.9031C145.775 17.7469 145.89 17.5907 146.031 17.4446C146.173 17.2985 146.334 17.1524 146.515 17.0113C146.233 16.8703 146.026 16.6889 145.895 16.4723C145.759 16.2557 145.694 16.0239 145.694 15.772C145.694 15.4244 145.764 15.112 145.906 14.84C146.047 14.568 146.223 14.3211 146.435 14.1045C146.258 13.8929 146.117 13.6561 146.016 13.3891C145.916 13.1221 145.86 12.8047 145.86 12.4268C145.86 11.9885 145.936 11.5956 146.082 11.2479C146.228 10.9003 146.435 10.6081 146.697 10.3663C146.958 10.1245 147.276 9.94313 147.644 9.81214C148.011 9.68115 148.414 9.6207 148.848 9.6207C149.079 9.6207 149.301 9.63581 149.503 9.661C149.704 9.68619 149.896 9.72145 150.072 9.76679H152.399C152.495 9.76679 152.571 9.81213 152.616 9.90786C152.661 10.0086 152.687 10.1497 152.687 10.3462ZM151.19 18.4723C151.19 18.1398 151.054 17.888 150.782 17.7066C150.51 17.5252 150.142 17.4295 149.684 17.4194L147.689 17.3489C147.508 17.49 147.356 17.626 147.241 17.757C147.125 17.8829 147.029 18.0089 146.964 18.1247C146.893 18.2406 146.848 18.3565 146.822 18.4723C146.797 18.5882 146.782 18.7041 146.782 18.825C146.782 19.1978 146.969 19.4749 147.346 19.6663C147.724 19.8578 148.248 19.9535 148.918 19.9535C149.346 19.9535 149.704 19.9132 149.991 19.8276C150.278 19.7469 150.51 19.6361 150.687 19.5001C150.863 19.3641 150.989 19.2079 151.069 19.0316C151.15 18.8552 151.19 18.6688 151.19 18.4723ZM150.48 12.3714C150.48 11.8475 150.334 11.4394 150.047 11.1422C149.76 10.85 149.351 10.6988 148.817 10.6988C148.545 10.6988 148.304 10.7442 148.102 10.8348C147.901 10.9255 147.729 11.0515 147.598 11.2127C147.467 11.3739 147.367 11.5553 147.301 11.7669C147.236 11.9734 147.2 12.1951 147.2 12.4218C147.2 12.9306 147.346 13.3286 147.634 13.6208C147.921 13.913 148.324 14.0591 148.843 14.0591C149.12 14.0591 149.367 14.0138 149.568 13.9281C149.775 13.8425 149.941 13.7165 150.077 13.5604C150.213 13.4042 150.309 13.2228 150.374 13.0163C150.44 12.8097 150.48 12.5981 150.48 12.3714Z" fill="#4C4948"/>
<path d="M10.52 7.97116C8.34492 5.79607 4.81765 5.79607 2.64256 7.97116C-0.880852 11.4926 -0.880852 17.2047 2.64256 20.7261C8.34106 26.4246 17.5784 26.4246 23.2769 20.7261L10.52 7.97116Z" fill="#666464"/>
<path d="M8.98045 3.50892L24.7353 19.2638C28.2568 15.7423 28.2568 10.0303 24.7353 6.50884C22.5603 4.33376 19.033 4.33376 16.8579 6.50884C18.2043 5.16245 18.2043 2.97771 16.8579 1.63132C14.6828 -0.543772 11.1555 -0.543772 8.98045 1.63132C8.46275 2.15094 8.46275 2.99123 8.98045 3.50892Z" fill="#FAC766"/>
</svg>
