<svg width="37" height="65" viewBox="0 0 37 65" fill="none" xmlns="http://www.w3.org/2000/svg">
<path fill-rule="evenodd" clip-rule="evenodd" d="M14.2747 4.96922C17.4531 1.78748 21.7639 0 26.2589 0H35.5695C36.3596 0 37 0.641105 37 1.43195V13.8592C37 14.65 36.3596 15.2911 35.5695 15.2911H26.2589C25.8151 15.2911 25.3896 15.4676 25.0758 15.7817C24.762 16.0958 24.5858 16.5218 24.5858 16.966V24.8544H35.5695C36.01 24.8544 36.4259 25.0576 36.697 25.4052C36.9681 25.7527 37.0641 26.2059 36.9573 26.6337L33.8537 39.0609C33.6945 39.6984 33.1224 40.1456 32.466 40.1456H24.5858V63.5681C24.5858 64.3589 23.9453 65 23.1553 65H10.7411C9.95109 65 9.31066 64.3589 9.31066 63.5681V40.1456H1.43045C0.640434 40.1456 0 39.5045 0 38.7136V26.2864C0 25.4955 0.640434 24.8544 1.43045 24.8544H9.31066V16.966C9.31066 12.4663 11.0963 8.15096 14.2747 4.96922ZM26.2589 2.8639C22.5227 2.8639 18.9395 4.34965 16.2976 6.9943C13.6558 9.63895 12.1716 13.2259 12.1716 16.966V26.2864C12.1716 27.0772 11.5311 27.7183 10.7411 27.7183H2.8609V37.2817H10.7411C11.5311 37.2817 12.1716 37.9228 12.1716 38.7136V62.1361H21.7249V38.7136C21.7249 37.9228 22.3653 37.2817 23.1553 37.2817H31.3491L33.7374 27.7183H23.1553C22.3653 27.7183 21.7249 27.0772 21.7249 26.2864V16.966C21.7249 15.7622 22.2026 14.6078 23.0529 13.7566C23.9031 12.9054 25.0564 12.4272 26.2589 12.4272H34.1391V2.8639H26.2589Z" fill="#FAC766"/>
</svg>
