<svg width="50" height="50" viewBox="0 0 50 50" fill="none" xmlns="http://www.w3.org/2000/svg">
<rect width="50" height="50" fill="none"/>
<path fill-rule="evenodd" clip-rule="evenodd" d="M22.7827 8.06841C24.7474 6.10374 27.412 5 30.1905 5H35.9048C36.4307 5 36.8571 5.4264 36.8571 5.95238V13.5714C36.8571 14.0974 36.4307 14.5238 35.9048 14.5238H30.1905C29.9379 14.5238 29.6956 14.6241 29.517 14.8028C29.3384 14.9814 29.2381 15.2236 29.2381 15.4762V20.2381H35.9048C36.198 20.2381 36.4749 20.3732 36.6554 20.6044C36.8359 20.8355 36.8998 21.1369 36.8287 21.4215L34.9239 29.0405C34.818 29.4645 34.437 29.7619 34 29.7619H29.2381V44.0476C29.2381 44.5736 28.8117 45 28.2857 45H20.6667C20.1407 45 19.7143 44.5736 19.7143 44.0476V29.7619H14.9524C14.4264 29.7619 14 29.3355 14 28.8095V21.1905C14 20.6645 14.4264 20.2381 14.9524 20.2381H19.7143V15.4762C19.7143 12.6977 20.818 10.0331 22.7827 8.06841ZM30.1905 6.90476C27.9172 6.90476 25.737 7.80782 24.1296 9.41528C22.5221 11.0227 21.619 13.2029 21.619 15.4762V21.1905C21.619 21.7165 21.1927 22.1429 20.6667 22.1429H15.9048V27.8571H20.6667C21.1927 27.8571 21.619 28.2835 21.619 28.8095V43.0952H27.3333V28.8095C27.3333 28.2835 27.7597 27.8571 28.2857 27.8571H33.2564L34.685 22.1429H28.2857C27.7597 22.1429 27.3333 21.7165 27.3333 21.1905V15.4762C27.3333 14.7184 27.6344 13.9917 28.1702 13.4559C28.706 12.9201 29.4327 12.619 30.1905 12.619H34.9524V6.90476H30.1905Z" fill="#FAC766"/>
</svg>
