<svg width="32" height="32" viewBox="0 0 32 32" fill="none" xmlns="http://www.w3.org/2000/svg">
<path d="M31 16C31 24.2843 24.2843 31 16 31C7.71573 31 1 24.2843 1 16C1 7.71573 7.71573 1 16 1C24.2843 1 31 7.71573 31 16Z" stroke="#4C4948" stroke-width="2"/>
<circle cx="16" cy="13.6471" r="6.17647" stroke="#4C4948" stroke-width="2"/>
<path d="M4.31958 25.4118L3.54129 24.7839L3.03471 25.4118L3.54129 26.0397L4.31958 25.4118ZM27.6806 25.4118L28.4589 26.0397L28.9655 25.4118L28.4589 24.7839L27.6806 25.4118ZM5.09787 26.0397C7.66583 22.8567 11.5952 20.8235 16.0001 20.8235V18.8235C10.965 18.8235 6.47262 21.1505 3.54129 24.7839L5.09787 26.0397ZM16.0001 20.8235C20.405 20.8235 24.3343 22.8567 26.9023 26.0397L28.4589 24.7839C25.5276 21.1505 21.0352 18.8235 16.0001 18.8235V20.8235ZM26.9023 24.7839C24.3343 27.9668 20.405 30 16.0001 30V32C21.0352 32 25.5276 29.6731 28.4589 26.0397L26.9023 24.7839ZM16.0001 30C11.5952 30 7.66583 27.9668 5.09787 24.7839L3.54129 26.0397C6.47262 29.6731 10.965 32 16.0001 32V30Z" fill="#4C4948"/>
</svg>
