<svg width="37" height="28" viewBox="0 0 37 28" fill="none" xmlns="http://www.w3.org/2000/svg">
<path d="M34.8908 5.81453C34.7074 5.07417 34.334 4.39582 33.8081 3.84799C33.2823 3.30017 32.6228 2.90228 31.8961 2.69451C29.2411 2.03931 18.6209 2.03931 18.6209 2.03931C18.6209 2.03931 8.00072 2.03931 5.34567 2.75691C4.619 2.96468 3.95946 3.36257 3.43365 3.91039C2.90784 4.45822 2.53439 5.13657 2.35103 5.87693C1.86512 8.60002 1.62743 11.3624 1.64096 14.1294C1.62364 16.9172 1.86134 19.7007 2.35103 22.4443C2.55318 23.1616 2.93499 23.8142 3.45958 24.3389C3.98416 24.8635 4.63378 25.2426 5.34567 25.4395C8.00072 26.1571 18.6209 26.1571 18.6209 26.1571C18.6209 26.1571 29.2411 26.1571 31.8961 25.4395C32.6228 25.2317 33.2823 24.8338 33.8081 24.286C34.334 23.7382 34.7074 23.0598 34.8908 22.3195C35.3729 19.6169 35.6106 16.8755 35.6008 14.1294C35.6182 11.3416 35.3805 8.55812 34.8908 5.81453V5.81453Z" stroke="white" stroke-opacity="0.875" stroke-width="2.38645" stroke-linecap="round" stroke-linejoin="round"/>
<path d="M15.1478 19.2308L24.0236 14.1296L15.1478 9.02832V19.2308Z" stroke="white" stroke-opacity="0.875" stroke-width="2.38645" stroke-linecap="round" stroke-linejoin="round"/>
</svg>
