<svg width="36" height="36" viewBox="0 0 36 36" fill="none" xmlns="http://www.w3.org/2000/svg">
<path d="M25.8645 2H9.95484C5.5615 2 2 5.5993 2 10.0393V26.1178C2 30.5577 5.5615 34.157 9.95484 34.157H25.8645C30.2579 34.157 33.8194 30.5577 33.8194 26.1178V10.0393C33.8194 5.5993 30.2579 2 25.8645 2Z" stroke="white" stroke-opacity="0.875" stroke-width="2.38645" stroke-linecap="round" stroke-linejoin="round"/>
<path d="M24.2735 17.0657C24.4698 18.4038 24.2437 19.7704 23.6272 20.9712C23.0107 22.1719 22.0352 23.1456 20.8396 23.7538C19.6439 24.362 18.289 24.5737 16.9674 24.3588C15.6459 24.1439 14.425 23.5133 13.4785 22.5567C12.532 21.6002 11.908 20.3664 11.6954 19.0308C11.4827 17.6952 11.6922 16.3259 12.294 15.1176C12.8958 13.9092 13.8593 12.9234 15.0474 12.3004C16.2356 11.6773 17.5878 11.4488 18.9119 11.6472C20.2625 11.8496 21.5129 12.4856 22.4784 13.4614C23.4439 14.4371 24.0732 15.7007 24.2735 17.0657Z" stroke="white" stroke-opacity="0.875" stroke-width="2.38645" stroke-linecap="round" stroke-linejoin="round"/>
<path d="M26.66 9.23535H26.6754" stroke="white" stroke-opacity="0.875" stroke-width="2.38645" stroke-linecap="round" stroke-linejoin="round"/>
</svg>
