<svg width="32" height="30" viewBox="0 0 32 30" fill="none" xmlns="http://www.w3.org/2000/svg">
<path d="M11.6667 29C12.4031 29 13 28.4031 13 27.6667C13 26.9303 12.4031 26.3334 11.6667 26.3334C10.9303 26.3334 10.3334 26.9303 10.3334 27.6667C10.3334 28.4031 10.9303 29 11.6667 29Z" fill="#4C4948" stroke="#4C4948" stroke-width="2" stroke-linecap="round" stroke-linejoin="round"/>
<path d="M26.3333 29C27.0697 29 27.6667 28.4031 27.6667 27.6667C27.6667 26.9303 27.0697 26.3334 26.3333 26.3334C25.597 26.3334 25 26.9303 25 27.6667C25 28.4031 25.597 29 26.3333 29Z" fill="#4C4948" stroke="#4C4948" stroke-width="2" stroke-linecap="round" stroke-linejoin="round"/>
<path d="M1 1H6.33334L9.90667 18.8533C10.0286 19.4672 10.3625 20.0186 10.8501 20.4111C11.3376 20.8035 11.9476 21.012 12.5733 21H25.5333C26.1591 21.012 26.7691 20.8035 27.2566 20.4111C27.7441 20.0186 28.0781 19.4672 28.2 18.8533L30.3333 7.66667H7.66667" stroke="#4C4948" stroke-width="2" stroke-linecap="round" stroke-linejoin="round"/>
</svg>
