<svg width="65" height="65" viewBox="0 0 65 65" fill="none" xmlns="http://www.w3.org/2000/svg">
<path fill-rule="evenodd" clip-rule="evenodd" d="M16.966 2.8639C9.17761 2.8639 2.8639 9.17761 2.8639 16.966V48.034C2.8639 55.8224 9.17761 62.1361 16.966 62.1361H48.034C55.8224 62.1361 62.1361 55.8224 62.1361 48.034V16.966C62.1361 9.17761 55.8224 2.8639 48.034 2.8639H16.966ZM0 16.966C0 7.59593 7.59593 0 16.966 0H48.034C57.4041 0 65 7.59593 65 16.966V48.034C65 57.4041 57.4041 65 48.034 65H16.966C7.59593 65 0 57.4041 0 48.034V16.966Z" fill="#FAC766"/>
<path fill-rule="evenodd" clip-rule="evenodd" d="M34.071 21.9055C31.8426 21.5751 29.5668 21.9557 27.5671 22.9933C25.5675 24.0308 23.946 25.6725 22.9332 27.6848C21.9204 29.697 21.5678 31.9774 21.9257 34.2015C22.2836 36.4257 23.3337 38.4804 24.9267 40.0733C26.5196 41.6663 28.5743 42.7164 30.7985 43.0743C33.0226 43.4322 35.303 43.0796 37.3153 42.0668C39.3275 41.054 40.9692 39.4325 42.0067 37.4328C43.0443 35.4332 43.4249 33.1574 43.0945 30.929C42.7574 28.6559 41.6982 26.5515 40.0733 24.9267C38.4485 23.3018 36.3441 22.2426 34.071 21.9055ZM26.2823 20.5171C28.8028 19.2093 31.6714 18.7295 34.4802 19.146C37.3453 19.5709 39.9978 20.906 42.0459 22.9541C44.094 25.0022 45.4291 27.6547 45.854 30.5198C46.2705 33.3286 45.7907 36.1972 44.4829 38.7177C43.1751 41.2381 41.1058 43.282 38.5695 44.5587C36.0331 45.8353 33.1587 46.2796 30.3553 45.8285C27.5518 45.3774 24.9619 44.0538 22.9541 42.0459C20.9462 40.0381 19.6226 37.4482 19.1715 34.6447C18.7204 31.8413 19.1647 28.9669 20.4413 26.4305C21.718 23.8942 23.7619 21.8249 26.2823 20.5171Z" fill="#FAC766"/>
<path fill-rule="evenodd" clip-rule="evenodd" d="M48 15.5C48 14.6716 48.6646 14 49.4844 14H49.5156C50.3354 14 51 14.6716 51 15.5C51 16.3284 50.3354 17 49.5156 17H49.4844C48.6646 17 48 16.3284 48 15.5Z" fill="#FAC766"/>
</svg>
