<svg width="50" height="50" viewBox="0 0 50 50" fill="none" xmlns="http://www.w3.org/2000/svg">
<rect width="50" height="50" fill="none"/>
<path fill-rule="evenodd" clip-rule="evenodd" d="M34.5 7.9H15.5C11.3026 7.9 7.9 11.3026 7.9 15.5V34.5C7.9 38.6974 11.3026 42.1 15.5 42.1H34.5C38.6974 42.1 42.1 38.6974 42.1 34.5V15.5C42.1 11.3026 38.6974 7.9 34.5 7.9ZM15.5 6H34.5C39.7467 6 44 10.2533 44 15.5V34.5C44 39.7467 39.7467 44 34.5 44H15.5C10.2533 44 6 39.7467 6 34.5V15.5C6 10.2533 10.2533 6 15.5 6Z" fill="#FAC766"/>
<path fill-rule="evenodd" clip-rule="evenodd" d="M26.0576 18.3397C24.674 18.1346 23.2609 18.3709 22.0193 19.0151C20.7778 19.6593 19.771 20.6786 19.1421 21.928C18.5132 23.1774 18.2944 24.5933 18.5166 25.9743C18.7388 27.3553 19.3908 28.631 20.3799 29.6201C21.3689 30.6091 22.6447 31.2611 24.0256 31.4834C25.4066 31.7056 26.8225 31.4867 28.0719 30.8578C29.3213 30.229 30.3406 29.2222 30.9848 27.9806C31.629 26.739 31.8654 25.326 31.6602 23.9424C31.4509 22.531 30.7933 21.2244 29.7844 20.2155C28.7755 19.2067 27.4689 18.549 26.0576 18.3397ZM21.1442 17.3286C22.7405 16.5003 24.5573 16.1965 26.3363 16.4603C28.1508 16.7294 29.8308 17.5749 31.1279 18.872C32.425 20.1692 33.2706 21.8491 33.5396 23.6637C33.8034 25.4426 33.4996 27.2594 32.6713 28.8557C31.843 30.452 30.5325 31.7464 28.9261 32.555C27.3197 33.3635 25.4993 33.6449 23.7238 33.3592C21.9482 33.0735 20.308 32.2352 19.0364 30.9636C17.7647 29.6919 16.9264 28.0517 16.6407 26.2761C16.355 24.5006 16.6364 22.6802 17.445 21.0738C18.2535 19.4674 19.548 18.1569 21.1442 17.3286Z" fill="#FAC766"/>
<path fill-rule="evenodd" clip-rule="evenodd" d="M34.5 14.55C34.5 14.0253 34.9253 13.6 35.45 13.6H35.4684C35.9931 13.6 36.4184 14.0253 36.4184 14.55C36.4184 15.0746 35.9931 15.5 35.4684 15.5H35.45C34.9253 15.5 34.5 15.0746 34.5 14.55Z" fill="#FAC766"/>
</svg>
