<svg width="50" height="50" viewBox="0 0 50 50" fill="none" xmlns="http://www.w3.org/2000/svg">
<rect width="50" height="50" fill="none"/>
<path d="M26.4985 5C27.1484 5.07932 27.8006 5.13992 28.4461 5.24128C34.2333 6.14359 39.0879 8.63238 42.4867 13.491C44.4143 16.2464 45.2334 19.3422 44.943 22.6893C44.6903 25.6022 43.406 28.0844 41.5319 30.2978C39.8135 32.3261 37.7601 33.9897 35.6456 35.5861C31.6235 38.6235 27.6069 41.6698 23.5848 44.7083C23.4312 44.824 23.2543 44.9397 23.0718 44.9794C22.5309 45.0972 22.0824 44.6973 22.0801 44.1101C22.0757 42.0664 22.0779 40.0227 22.0779 37.979C22.0779 37.8369 22.0779 37.6948 22.0779 37.5438C21.2109 37.394 20.3562 37.2816 19.5171 37.0965C15.0854 36.1215 11.2247 34.1505 8.31548 30.6118C5.837 27.5953 4.72964 24.116 5.05573 20.2346C5.3117 17.1774 6.52924 14.4858 8.51692 12.1469C11.4962 8.6412 15.3392 6.55453 19.812 5.56518C20.896 5.32501 22.0145 5.23467 23.1163 5.07382C23.2443 5.05509 23.3711 5.02534 23.4991 5C24.4985 5 25.4979 5 26.4985 5ZM23.7484 42.4718C23.9287 42.3451 24.0367 42.2757 24.1391 42.1986C27.8763 39.3694 31.6135 36.5424 35.3484 33.7098C37.2515 32.2666 39.0645 30.7253 40.5592 28.8512C42.627 26.26 43.6464 23.3525 43.2268 20.0286C42.8551 17.0881 41.5597 14.5729 39.5019 12.4532C36.0251 8.87036 31.6669 7.14836 26.7422 6.7275C23.8196 6.47741 20.9483 6.81454 18.1604 7.73668C14.7193 8.87476 11.7722 10.7389 9.50743 13.5868C6.04067 17.9442 5.73016 23.7084 8.75286 28.3698C10.7083 31.3852 13.5307 33.3264 16.8616 34.5956C18.7959 35.3327 20.8092 35.7271 22.8692 35.9199C23.5314 35.9816 23.7462 36.2537 23.7484 36.9236C23.7518 37.8611 23.7495 38.7976 23.7495 39.7351C23.7484 40.6176 23.7484 41.499 23.7484 42.4718Z" fill="#FAC766"/>
<path d="M24.6583 20.778C24.6583 22.0016 24.6604 23.2242 24.6551 24.4479C24.654 24.6451 24.6456 24.8502 24.5925 25.0372C24.4705 25.4677 24.149 25.7009 23.7851 25.6626C23.3766 25.6198 23.0667 25.3054 23.0084 24.8705C23.0009 24.8186 23.0009 24.7645 23.0009 24.7116C23.0009 22.4636 22.9978 20.2146 23.0031 17.9666C23.0041 17.4877 23.211 17.1869 23.5919 17.0505C23.9601 16.9187 24.2731 17.0393 24.5925 17.4776C25.5506 18.7914 26.5003 20.1131 27.4552 21.4292C27.6059 21.6366 27.7682 21.8338 27.991 22.12C28.0112 21.7932 28.0345 21.5735 28.0356 21.3537C28.0398 20.2224 28.0335 19.0923 28.0409 17.961C28.0451 17.3863 28.338 17.0314 28.7985 17.0066C29.2176 16.9841 29.5316 17.2286 29.6102 17.6658C29.6473 17.8731 29.659 18.0883 29.659 18.3001C29.6643 20.3227 29.6643 22.3442 29.6664 24.3668C29.6664 24.4333 29.6675 24.4997 29.6653 24.5662C29.6473 25.1533 29.4616 25.4857 29.0701 25.6085C28.6085 25.7527 28.3125 25.4958 28.0504 25.1341C27.0722 23.7854 26.0854 22.4445 25.1071 21.0968C25.0021 20.9526 24.9289 20.7836 24.8408 20.6258C24.7803 20.6777 24.7188 20.7284 24.6583 20.778Z" fill="#FAC766"/>
<path d="M32.7878 22.2521C32.7878 22.8025 32.7878 23.3147 32.7878 23.8719C33.4204 23.8719 34.0309 23.8651 34.6414 23.8752C34.9666 23.8809 35.2951 23.8932 35.6169 23.9404C36.0593 24.0067 36.3192 24.329 36.3225 24.7592C36.3247 25.1939 36.077 25.5006 35.6335 25.5949C35.4809 25.6275 35.3238 25.6578 35.169 25.659C34.1637 25.6646 33.1572 25.6736 32.1519 25.6578C31.318 25.6444 31.0127 25.3388 31.0083 24.4975C30.9972 22.3757 30.9972 20.2527 31.0083 18.1309C31.0127 17.2739 31.3036 17.0043 32.1585 17.002C33.2291 16.9987 34.3008 16.9998 35.3714 17.0032C35.9498 17.0054 36.2794 17.2941 36.3292 17.8299C36.3723 18.2859 36.0792 18.6476 35.5074 18.6948C34.7675 18.7554 34.021 18.7509 33.2778 18.7386C32.894 18.7318 32.7292 18.8172 32.717 19.2587C32.6861 20.3842 32.7004 20.4268 33.8153 20.4325C34.3373 20.4347 34.8615 20.4167 35.3824 20.4437C36.0792 20.4785 36.442 20.9593 36.2717 21.5816C36.1611 21.9837 35.8702 22.1623 35.4864 22.1769C34.8084 22.2027 34.1294 22.2016 33.4503 22.2173C33.2335 22.2184 33.0157 22.2387 32.7878 22.2521Z" fill="#FAC766"/>
<path d="M14.9607 23.8693C15.846 23.8693 16.669 23.8648 17.492 23.8715C17.7264 23.8738 17.9645 23.885 18.1927 23.9288C18.6965 24.0266 19.0145 24.383 18.9995 24.7966C18.9858 25.1968 18.6678 25.5194 18.179 25.6115C18.0082 25.6441 17.8299 25.6599 17.6541 25.661C16.5343 25.6655 15.4146 25.6711 14.2948 25.661C13.3521 25.652 13.0017 25.3204 13.0017 24.4605C12.9992 22.3889 12.9992 20.3161 13.003 18.2445C13.003 18.0602 13.0204 17.8725 13.0666 17.6937C13.1925 17.2138 13.5005 16.9923 13.9918 17.0002C14.4719 17.0081 14.8397 17.2936 14.9208 17.7567C14.9594 17.9781 14.9557 18.2074 14.9557 18.4322C14.9594 20.079 14.9594 21.7257 14.9607 23.3736C14.9607 23.5163 14.9607 23.6602 14.9607 23.8693Z" fill="#FAC766"/>
<path d="M19.6679 21.2787C19.6679 20.1306 19.6653 18.9825 19.6692 17.8343C19.6705 17.5224 19.6705 17.1439 20.069 17.0603C20.4586 16.9778 20.9229 16.9744 21.2982 17.0851C21.6865 17.1993 21.6594 17.6049 21.6607 17.9259C21.6645 19.795 21.6633 21.664 21.6633 23.5331C21.6633 23.9467 21.6736 24.3615 21.6581 24.775C21.6323 25.4079 21.3292 25.6689 20.6546 25.6667C19.971 25.6633 19.6769 25.4034 19.6731 24.7649C19.6628 23.6021 19.6679 22.4404 19.6679 21.2787Z" fill="#FAC766"/>
</svg>
