<svg width="60" height="60" viewBox="0 0 60 60" fill="none" xmlns="http://www.w3.org/2000/svg">
<path d="M32.2477 0C33.2226 0.118986 34.2009 0.209878 35.1691 0.361916C43.8499 1.71538 51.1318 5.44858 56.2301 12.7365C59.1215 16.8696 60.3502 21.5134 59.9145 26.5339C59.5355 30.9034 57.609 34.6266 54.7978 37.9467C52.2202 40.9891 49.1402 43.4845 45.9684 45.8791C39.9352 50.4353 33.9104 55.0047 27.8772 59.5625C27.6469 59.736 27.3814 59.9095 27.1076 59.969C26.2963 60.1459 25.6236 59.546 25.6202 58.6651C25.6135 55.5996 25.6169 52.534 25.6169 49.4685C25.6169 49.2553 25.6169 49.0421 25.6169 48.8157C24.3164 48.591 23.0343 48.4224 21.7756 48.1448C15.1281 46.6822 9.33701 43.7258 4.97323 38.4177C1.2555 33.8929 -0.40554 28.674 0.0835903 22.852C0.46755 18.266 2.29386 14.2288 5.27539 10.7203C9.74434 5.4618 15.5087 2.3318 22.218 0.847776C23.844 0.487513 25.5217 0.352001 27.1744 0.110723C27.3664 0.0826293 27.5567 0.0380095 27.7487 0C29.2478 0 30.7469 0 32.2477 0ZM28.1226 56.2077C28.3931 56.0177 28.555 55.9136 28.7086 55.7979C34.3144 51.5541 39.9202 47.3135 45.5227 43.0647C48.3773 40.8998 51.0968 38.5879 53.3387 35.7768C56.4405 31.8899 57.9696 27.5288 57.3403 22.5429C56.7827 18.1322 54.8395 14.3593 51.7528 11.1797C46.5377 5.80553 40.0003 3.22254 32.6133 2.59125C28.2295 2.21612 23.9225 2.72181 19.7406 4.10502C14.5789 5.81214 10.1583 8.60832 6.76114 12.8803C1.561 19.4162 1.09524 28.0626 5.6293 35.0546C8.56241 39.5778 12.796 42.4896 17.7925 44.3934C20.6939 45.499 23.7138 46.0906 26.8038 46.3798C27.7971 46.4724 28.1193 46.8806 28.1226 47.8853C28.1276 49.2917 28.1243 50.6964 28.1243 52.1027C28.1226 53.4264 28.1226 54.7485 28.1226 56.2077Z" fill="#FAC766"/>
<path d="M29.4874 23.6669C29.4874 25.5025 29.4906 27.3363 29.4827 29.1719C29.4811 29.4676 29.4683 29.7753 29.3888 30.0558C29.2057 30.7015 28.7235 31.0513 28.1776 30.9939C27.5648 30.9297 27.1001 30.4581 27.0126 29.8057C27.0014 29.7279 27.0014 29.6468 27.0014 29.5674C27.0014 26.1954 26.9966 22.8218 27.0046 19.4499C27.0062 18.7316 27.3166 18.2803 27.8879 18.0758C28.4402 17.8781 28.9097 18.0589 29.3888 18.7164C30.8259 20.6871 32.2504 22.6697 33.6828 24.6439C33.9088 24.9549 34.1523 25.2506 34.4865 25.6799C34.5168 25.1898 34.5518 24.8602 34.5534 24.5306C34.5597 22.8337 34.5502 21.1384 34.5613 19.4415C34.5677 18.5795 35.007 18.0471 35.6977 18.0099C36.3264 17.9761 36.7975 18.3429 36.9152 18.9986C36.971 19.3096 36.9885 19.6325 36.9885 19.9502C36.9964 22.9841 36.9964 26.0163 36.9996 29.0502C36.9996 29.1499 37.0012 29.2496 36.998 29.3493C36.971 30.2299 36.6924 30.7285 36.1051 30.9127C35.4128 31.1291 34.9688 30.7437 34.5757 30.2012C33.1082 28.178 31.6281 26.1667 30.1607 24.1453C30.0031 23.9289 29.8933 23.6754 29.7612 23.4388C29.6705 23.5165 29.5782 23.5926 29.4874 23.6669Z" fill="#FAC766"/>
<path d="M41.6817 25.8782C41.6817 26.7038 41.6817 27.4721 41.6817 28.3078C42.6307 28.3078 43.5464 28.2977 44.4622 28.3129C44.9499 28.3213 45.4426 28.3398 45.9254 28.4106C46.589 28.51 46.9788 28.9936 46.9838 29.6389C46.9871 30.2909 46.6155 30.7509 45.9503 30.8924C45.7213 30.9413 45.4857 30.9868 45.2535 30.9885C43.7455 30.9969 42.2358 31.0104 40.7278 30.9868C39.477 30.9666 39.0191 30.5083 39.0124 29.2463C38.9959 26.0635 38.9959 22.8791 39.0124 19.6964C39.0191 18.4108 39.4554 18.0064 40.7378 18.0031C42.3437 17.998 43.9512 17.9997 45.5571 18.0047C46.4247 18.0081 46.9191 18.4411 46.9938 19.2448C47.0585 19.9289 46.6188 20.4714 45.7611 20.5422C44.6513 20.6332 43.5315 20.6264 42.4167 20.6079C41.841 20.5978 41.5938 20.7258 41.5756 21.388C41.5291 23.0762 41.5507 23.1403 43.2229 23.1487C44.0059 23.1521 44.7923 23.1251 45.5737 23.1655C46.6188 23.2178 47.163 23.9389 46.9075 24.8723C46.7416 25.4755 46.3053 25.7434 45.7296 25.7653C44.7127 25.8041 43.6941 25.8024 42.6754 25.826C42.3503 25.8277 42.0235 25.858 41.6817 25.8782Z" fill="#FAC766"/>
<path d="M14.941 28.3039C16.269 28.3039 17.5035 28.2972 18.7379 28.3073C19.0896 28.3106 19.4468 28.3275 19.7891 28.3933C20.5447 28.5399 21.0217 29.0744 20.9992 29.6949C20.9787 30.2951 20.5017 30.779 19.7685 30.9173C19.5123 30.9662 19.2448 30.9898 18.9811 30.9915C17.3015 30.9982 15.6218 31.0067 13.9422 30.9915C12.5282 30.978 12.0026 30.4806 12.0026 29.1908C11.9989 26.0833 11.9989 22.9742 12.0045 19.8668C12.0045 19.5903 12.0307 19.3087 12.0999 19.0406C12.2888 18.3207 12.7508 17.9885 13.4877 18.0003C14.2078 18.0121 14.7596 18.4404 14.8812 19.135C14.9391 19.4672 14.9335 19.8111 14.9335 20.1484C14.9391 22.6185 14.9391 25.0886 14.941 27.5603C14.941 27.7745 14.941 27.9903 14.941 28.3039Z" fill="#FAC766"/>
<path d="M22.0019 24.4181C22.0019 22.6959 21.9981 20.9737 22.0039 19.2515C22.0058 18.7837 22.0058 18.2158 22.6036 18.0904C23.1879 17.9666 23.8844 17.9616 24.4474 18.1277C25.0298 18.2989 24.9891 18.9074 24.9911 19.3888C24.9969 22.1924 24.9949 24.9961 24.9949 27.7997C24.9949 28.4201 25.0104 29.0422 24.9872 29.6626C24.9485 30.6118 24.4939 31.0034 23.482 31C22.4566 30.9949 22.0155 30.605 22.0097 29.6473C21.9942 27.9031 22.0019 26.1606 22.0019 24.4181Z" fill="#FAC766"/>
</svg>
