<svg width="273" height="448" viewBox="0 0 273 448" fill="none" xmlns="http://www.w3.org/2000/svg">
<path d="M78.1482 406.636C81.5714 405.579 84.107 404.395 86.7695 404.056C89.8545 403.676 93.0663 403.972 96.1936 403.972C96.0246 407.651 96.9966 411.881 95.4752 414.884C92.6437 420.425 88.2909 425.162 84.7409 430.407C82.8392 433.241 80.8529 436.201 79.7119 439.416C76.8381 447.41 70.9216 449.229 63.7373 447.283C55.8767 445.168 54.2708 439.162 55.2428 431.591C57.863 410.697 60.1873 389.76 62.554 368.823C62.5962 368.358 61.751 367.766 60.0606 365.609C56.8487 369.162 53.7214 372.376 50.8899 375.845C42.1842 386.376 33.6475 397.035 24.9417 407.609C20.2508 413.277 13.5313 415.73 8.54451 410.401C5.96659 407.651 6.34694 399.234 8.67129 395.428C13.1087 388.28 20.124 382.739 25.787 376.268C35.9296 364.636 46.2412 353.131 55.6654 340.95C62.0891 332.618 67.1181 323.186 72.9079 314.346C76.1197 309.439 80.0922 306.14 86.0088 310.539C91.1646 314.388 93.1086 319.168 89.0938 325.089C88.1218 326.527 87.2343 328.092 86.0933 329.403C80.3458 336.086 78.9089 342.811 79.7964 352.286C81.3178 368.274 78.9512 384.642 78.2328 400.842C78.106 402.491 78.1482 404.141 78.1482 406.636Z" fill="#FAC766"/>
<path d="M47.5514 211.101C39.3527 219.687 30.9428 228.104 23.04 236.944C17.3771 243.288 11.1647 246.883 3.93811 240.623C-3.54207 234.152 0.979843 228.4 6.38924 222.817C25.4066 203.191 44.255 183.397 63.0611 163.56C66.442 160.007 69.4425 156.073 72.2317 152.013C75.4858 147.318 78.106 141.269 85.2058 146.514C91.2491 150.955 92.3057 157.131 88.2486 163.221C85.1636 167.874 81.1065 171.977 77.0495 175.868C69.6538 183.016 64.9206 190.164 67.2027 201.795C69.0622 211.27 66.7378 221.506 66.8223 231.403C66.9491 244.388 67.5408 257.415 68.0479 270.4C68.3437 278.182 66.6956 285.331 57.6095 285.627C47.4246 286.007 45.9032 277.675 46.2413 270.019C47.171 250.775 48.8192 231.572 50.2138 212.327C49.3686 211.989 48.4811 211.566 47.5514 211.101Z" fill="#FAC766"/>
<path d="M272.506 418.564C272.379 432.818 262.913 438.401 252.475 432.395C251.545 431.887 250.404 431.507 249.812 430.745C230.372 406.467 200.959 401.984 174.376 391.071C151.894 381.851 131.397 367.766 110.098 355.669C108.069 354.527 105.702 352.582 105.111 350.509C103.97 346.618 104.012 342.388 103.547 338.286C107.689 337.989 112.887 335.959 115.845 337.736C126.283 343.953 135.665 351.863 145.977 358.334C155.401 364.255 165.121 369.965 175.348 374.28C195.929 382.908 216.933 390.648 237.852 398.473C245.037 401.18 252.432 403.718 259.997 404.987C269.337 406.552 271.027 413.235 272.506 418.564Z" fill="#FAC766"/>
<path d="M110.14 249.971C107.224 247.983 102.11 246.164 101.857 243.88C101.519 240.623 103.885 235.379 106.674 233.771C133.933 218.206 154.429 195.028 176.278 173.33C184.942 164.744 194.028 156.454 203.917 149.39C206.748 147.36 213.848 148.925 217.313 151.294C219.215 152.563 218.497 159.203 217.44 162.967C216.679 165.674 213.552 167.789 211.228 169.904C196.521 183.185 182.195 196.931 166.896 209.536C151.344 222.394 134.905 234.152 118.719 246.249C116.563 247.856 113.69 248.448 110.14 249.971Z" fill="#FAC766"/>
<path d="M248.544 110.351C244.149 109.251 239.754 107.855 235.317 107.052C198.55 100.158 163.304 89.0336 130.805 70.0003C128.988 68.9429 126.326 68.2239 125.565 66.6166C123.029 61.1604 112.506 58.1151 118.677 50.1634C124.593 42.5923 130.214 50.4171 134.862 53.1664C162.67 69.6196 191.703 82.3931 224.244 85.2692C231.936 85.946 240.177 83.9581 247.276 86.1152C252.559 87.7224 258.729 93.3902 260.166 98.4657C261.096 101.807 254.376 107.348 251.08 111.874C250.277 111.408 249.432 110.901 248.544 110.351Z" fill="#FAC766"/>
<path d="M249.559 232.207C248.079 244.515 247.192 253.989 245.755 263.379C244.656 270.527 239.374 273.572 233.415 270.569C210.763 259.149 184.646 253.651 167.277 233.179C164.572 230.007 165.037 224.17 164.022 219.56C168.418 220.237 173.362 219.814 177.081 221.717C190.689 228.738 203.621 237.071 217.356 243.838C226.061 248.152 230.71 245.022 233.246 235.294C233.499 234.279 233.499 233.01 234.091 232.249C236.88 228.654 239.839 225.228 242.755 221.759C245.502 225.947 248.206 230.134 249.559 232.207Z" fill="#FAC766"/>
<path d="M158.655 354.274C156.077 352.074 153.246 350.636 152.063 348.352C151.302 346.914 152.358 342.811 153.669 342.219C170.996 334.479 179.744 318.237 191.239 304.787C197.113 297.935 204.255 297.343 211.017 303.856C217.609 310.159 216.299 316.08 209.918 321.875C204.973 326.358 200.62 331.603 195.465 335.79C192.126 338.497 187.773 340.02 183.843 342.008C180.166 343.869 176.405 345.603 172.686 347.421C168.375 349.494 164.065 351.609 158.655 354.274Z" fill="#FAC766"/>
<path d="M165.84 59.4262C166.262 55.6195 165.713 51.3899 167.234 48.0485C171.418 38.7857 175.898 29.6074 181.307 21.0212C183.378 17.7221 188.196 14.8036 191.999 14.423C194.366 14.2115 199.395 19.0756 199.353 21.6979C199.353 25.2508 195.845 28.8883 193.605 32.3566C191.576 35.5288 189.421 38.5742 187.139 41.5772C181.814 48.4715 176.405 55.2812 171.038 62.1332C169.347 61.2027 167.615 60.3144 165.84 59.4262Z" fill="#FAC766"/>
<path d="M139.173 194.986C134.186 193.759 130.552 193.421 127.467 191.94C121.085 188.853 115.549 176.164 119.606 173.542C123.156 171.258 129.495 172.611 134.44 173.415C137.736 173.964 141.793 175.572 143.568 178.067C145.977 181.409 147.794 186.23 147.329 190.122C147.16 192.194 141.624 193.675 139.173 194.986Z" fill="#FAC766"/>
<path d="M89.1783 13.5771C83.8957 23.3898 76.2042 31.8914 70.0341 41.2812C68.0478 44.2842 66.5687 48.3446 66.6532 51.8975C66.8645 65.5169 67.7098 79.094 68.4705 92.7134C68.6395 96.0971 69.3579 99.4385 69.9496 103.499C72.3585 102.611 73.5418 102.103 74.8096 101.723C78.3595 100.581 88.7979 94.2361 92.3901 93.0941C92.8973 97.4929 88.5866 108.363 86.7272 111.197C80.4303 120.798 72.9501 129.765 65.0051 138.14C63.3146 139.916 56.2993 139.62 54.5666 137.717C50.9322 133.699 47.0442 127.989 47.0864 122.955C47.1287 112.931 50.0447 102.991 51.228 92.9249C51.8619 87.4687 51.3548 81.8856 51.3548 76.3447C50.256 75.8795 49.115 75.3719 48.0162 74.9067C43.1984 81.1665 38.0003 87.1726 33.6897 93.7708C30.0553 99.3539 25.6601 103.626 19.152 101.046C15.7288 99.6923 12.1789 95.2512 11.3337 91.6137C9.85457 85.227 11.3337 79.3055 19.1097 76.4294C23.1245 74.949 27.1815 71.7768 29.7172 68.2662C42.3532 51.1785 54.5666 33.7947 66.7378 16.4109C66.7378 16.4109 75.528 0 84.1492 0C92.7705 0 89.1783 13.5771 89.1783 13.5771Z" fill="#FAC766"/>
</svg>
